<?xml version="1.0" encoding="utf-8"?>
<!-- Generator: Adobe Illustrator 23.0.2, SVG Export Plug-In . SVG Version: 6.00 Build 0)  -->
<svg version="1.1" id="Layer_1" xmlns="http://www.w3.org/2000/svg" xmlns:xlink="http://www.w3.org/1999/xlink" x="0px" y="0px"
	 viewBox="0 0 98 100" style="enable-background:new 0 0 98 100;" xml:space="preserve">
<style type="text/css">
	.st0{fill:#102E4A;}
	.st1{fill:none;}
	.st2{fill:#55C1FF;}
</style>
<g>
	<rect class="st0" width="98" height="100"/>
</g>
<g>
	<rect x="-0.29" y="19.45" class="st1" width="371.29" height="85.55"/>
	<path class="st2" d="M6.25,22.55h7.48v51.68h24.77v6.28H6.25V22.55z"/>
	<path class="st2" d="M46.84,23.32c4.56-0.69,9.98-1.2,15.91-1.2c10.75,0,18.4,2.49,23.48,7.22c5.16,4.73,8.17,11.44,8.17,20.81
		c0,9.46-2.92,17.2-8.34,22.53c-5.42,5.42-14.36,8.34-25.63,8.34c-5.33,0-9.8-0.26-13.59-0.69V23.32z M54.32,74.58
		c1.89,0.34,4.64,0.43,7.57,0.43c16,0,24.68-8.94,24.68-24.6c0.09-13.67-7.65-22.36-23.48-22.36c-3.87,0-6.79,0.34-8.77,0.77V74.58z
		"/>
</g>
<g>
</g>
<g>
</g>
<g>
</g>
<g>
</g>
<g>
</g>
<g>
</g>
<g>
</g>
<g>
</g>
<g>
</g>
<g>
</g>
<g>
</g>
<g>
</g>
<g>
</g>
<g>
</g>
<g>
</g>
</svg>
