<?xml version="1.0" encoding="utf-8"?>
<!-- Generator: Adobe Illustrator 23.0.2, SVG Export Plug-In . SVG Version: 6.00 Build 0)  -->
<svg version="1.1" id="Layer_1" xmlns="http://www.w3.org/2000/svg" xmlns:xlink="http://www.w3.org/1999/xlink" x="0px" y="0px"
	 viewBox="0 0 98 100" style="enable-background:new 0 0 98 100;" xml:space="preserve">
<style type="text/css">
	.st0{fill:#191919;}
	.st1{fill:none;}
	.st2{fill:#FFFFFF;}
	.st3{fill:none;stroke:#191919;stroke-width:10;stroke-miterlimit:10;}
</style>
<g>
	<rect y="0" class="st0" width="98" height="100"/>
</g>
<line class="st1" x1="120" y1="28.65" x2="98.63" y2="28.65"/>
<g>
	<rect x="2" y="88.41" class="st1" width="82.08" height="11.59"/>
	<path class="st2" d="M1.98,97.2l3.53-8.79h1.31l3.76,8.79H9.19l-1.07-2.66H4.28L3.27,97.2H1.98z M4.63,93.59h3.11l-0.96-2.43
		c-0.29-0.74-0.51-1.35-0.65-1.82c-0.12,0.56-0.28,1.12-0.49,1.68L4.63,93.59z"/>
	<path class="st2" d="M11.49,97.2v-8.79h3.44c0.7,0,1.26,0.09,1.69,0.27s0.76,0.45,1,0.82c0.24,0.37,0.36,0.76,0.36,1.16
		c0,0.38-0.11,0.73-0.32,1.06s-0.53,0.6-0.96,0.8c0.56,0.16,0.98,0.42,1.28,0.8c0.3,0.38,0.45,0.82,0.45,1.33
		c0,0.41-0.09,0.79-0.27,1.15c-0.18,0.35-0.41,0.63-0.67,0.82c-0.27,0.19-0.6,0.34-1.01,0.44c-0.4,0.1-0.9,0.15-1.48,0.15H11.49z
		 M12.71,92.1h1.98c0.54,0,0.92-0.03,1.16-0.1c0.31-0.09,0.54-0.23,0.7-0.44c0.16-0.2,0.23-0.46,0.23-0.77
		c0-0.29-0.07-0.55-0.22-0.77c-0.15-0.22-0.35-0.37-0.63-0.46s-0.74-0.12-1.4-0.12h-1.83V92.1z M12.71,96.16h2.29
		c0.39,0,0.67-0.01,0.83-0.04c0.28-0.05,0.51-0.13,0.7-0.24c0.19-0.11,0.34-0.27,0.46-0.49s0.18-0.46,0.18-0.74
		c0-0.33-0.09-0.61-0.26-0.85c-0.18-0.24-0.42-0.41-0.73-0.51c-0.31-0.1-0.76-0.15-1.34-0.15h-2.12V96.16z"/>
	<path class="st2" d="M19.73,92.92c0-1.46,0.41-2.6,1.23-3.43s1.87-1.24,3.17-1.24c0.85,0,1.61,0.19,2.29,0.58s1.2,0.93,1.56,1.62
		c0.36,0.69,0.54,1.48,0.54,2.36c0,0.89-0.19,1.69-0.56,2.39c-0.38,0.7-0.91,1.24-1.6,1.6c-0.69,0.36-1.43,0.54-2.23,0.54
		c-0.86,0-1.64-0.2-2.32-0.6c-0.68-0.4-1.2-0.95-1.55-1.64S19.73,93.69,19.73,92.92z M20.98,92.93c0,1.06,0.3,1.89,0.89,2.5
		s1.34,0.91,2.24,0.91c0.91,0,1.67-0.31,2.26-0.92c0.59-0.62,0.89-1.49,0.89-2.62c0-0.71-0.13-1.34-0.38-1.87
		c-0.25-0.53-0.62-0.95-1.11-1.24s-1.03-0.44-1.64-0.44c-0.86,0-1.6,0.28-2.22,0.85S20.98,91.61,20.98,92.93z"/>
	<path class="st2" d="M36.1,88.41h1.21v5.08c0,0.88-0.1,1.58-0.31,2.1c-0.21,0.52-0.59,0.94-1.13,1.27
		c-0.54,0.33-1.26,0.49-2.14,0.49c-0.86,0-1.56-0.14-2.11-0.43c-0.55-0.28-0.94-0.7-1.17-1.23c-0.23-0.54-0.35-1.27-0.35-2.2v-5.08
		h1.21v5.07c0,0.76,0.07,1.33,0.22,1.69c0.15,0.36,0.4,0.64,0.76,0.84c0.36,0.2,0.8,0.29,1.32,0.29c0.89,0,1.53-0.19,1.91-0.58
		s0.57-1.13,0.57-2.24V88.41z"/>
	<path class="st2" d="M41.67,97.2v-7.75h-3.02v-1.04h7.28v1.04h-3.04v7.75H41.67z"/>
	<path class="st2" d="M50.46,97.2v-8.79h1.83l2.17,6.22c0.2,0.58,0.35,1.01,0.44,1.3c0.1-0.32,0.27-0.79,0.49-1.41l2.2-6.12h1.63
		v8.79h-1.17v-7.36l-2.67,7.36h-1.1l-2.66-7.48v7.48H50.46z"/>
	<path class="st2" d="M61.21,97.2v-8.79h6.64v1.04h-5.42v2.69h5.08v1.03h-5.08v2.99h5.64v1.04H61.21z"/>
</g>
<g>
</g>
<path class="st2" d="M55.85,59.42H43.09c-5.05,0-9.15-4.1-9.15-9.15v0c0-5.05,4.1-9.15,9.15-9.15h12.77c5.05,0,9.15,4.1,9.15,9.15v0
	C65,55.32,60.9,59.42,55.85,59.42z"/>
<ellipse class="st2" cx="49.04" cy="33.02" rx="5.98" ry="5.73"/>
<rect x="33.94" y="52.13" class="st2" width="31.06" height="9.87"/>
<path class="st3" d="M74.77,62H25.02c-6.09,0-11.03-4.94-11.03-11.03V15.94c0-6.09,4.94-11.03,11.03-11.03h49.75
	c6.09,0,11.03,4.94,11.03,11.03v35.02C85.8,57.06,80.86,62,74.77,62z"/>
<line class="st1" x1="50" y1="-1" x2="49" y2="100"/>
<g>
</g>
<g>
</g>
<g>
</g>
<g>
</g>
<g>
</g>
<g>
</g>
<g>
</g>
<g>
</g>
<g>
</g>
<g>
</g>
<g>
</g>
<g>
</g>
<g>
</g>
<g>
</g>
<g>
</g>
</svg>
