<?xml version="1.0" encoding="utf-8"?>
<!-- Generator: Adobe Illustrator 23.0.2, SVG Export Plug-In . SVG Version: 6.00 Build 0)  -->
<svg version="1.1" id="Layer_1" xmlns="http://www.w3.org/2000/svg" xmlns:xlink="http://www.w3.org/1999/xlink" x="0px" y="0px"
	 viewBox="0 0 98 100" style="enable-background:new 0 0 98 100;" xml:space="preserve">
<style type="text/css">
	.st0{fill:#191919;}
	.st1{fill:none;}
	.st2{fill:#FFFFFF;}
	.st3{fill:none;stroke:#FFFFFF;stroke-miterlimit:10;}
</style>
<g>
	<rect y="-1" class="st0" width="98" height="101"/>
</g>
<g>
	<rect x="0" y="88" class="st1" width="96" height="12.16"/>
	<path class="st2" d="M0.54,93.83l1.07-0.09c0.05,0.43,0.17,0.78,0.35,1.06s0.47,0.5,0.86,0.67s0.83,0.25,1.32,0.25
		c0.43,0,0.82-0.06,1.15-0.19S5.88,95.22,6.04,95s0.24-0.47,0.24-0.74c0-0.27-0.08-0.5-0.23-0.71s-0.41-0.37-0.77-0.51
		c-0.23-0.09-0.74-0.23-1.53-0.42s-1.34-0.37-1.66-0.54c-0.41-0.21-0.72-0.48-0.92-0.8s-0.3-0.67-0.3-1.07
		c0-0.43,0.12-0.84,0.37-1.22s0.61-0.66,1.08-0.86s1-0.29,1.58-0.29c0.64,0,1.2,0.1,1.68,0.31s0.86,0.51,1.12,0.91
		s0.4,0.85,0.42,1.35L6.03,90.5c-0.06-0.54-0.26-0.95-0.59-1.23s-0.84-0.42-1.5-0.42c-0.69,0-1.19,0.13-1.5,0.38
		s-0.47,0.56-0.47,0.91c0,0.31,0.11,0.56,0.33,0.76c0.22,0.2,0.79,0.4,1.71,0.61s1.56,0.39,1.9,0.55c0.5,0.23,0.87,0.52,1.11,0.88
		s0.36,0.76,0.36,1.22c0,0.46-0.13,0.89-0.39,1.29s-0.64,0.72-1.13,0.94s-1.04,0.34-1.66,0.34c-0.78,0-1.43-0.11-1.95-0.34
		s-0.94-0.57-1.24-1.02S0.55,94.41,0.54,93.83z"/>
	<path class="st2" d="M8.88,96.59V88h1.14v4.26L14.29,88h1.54l-3.6,3.48l3.76,5.11h-1.5l-3.06-4.35l-1.41,1.37v2.98H8.88z"/>
	<path class="st2" d="M17.13,96.59V88h1.14v8.59H17.13z"/>
	<path class="st2" d="M20.22,96.59V88h1.14v7.58h4.23v1.01H20.22z"/>
	<path class="st2" d="M26.89,96.59V88h1.14v7.58h4.23v1.01H26.89z"/>
	<path class="st2" d="M33.23,93.83l1.07-0.09c0.05,0.43,0.17,0.78,0.35,1.06s0.47,0.5,0.86,0.67s0.83,0.25,1.32,0.25
		c0.43,0,0.82-0.06,1.15-0.19s0.58-0.31,0.74-0.53s0.24-0.47,0.24-0.74c0-0.27-0.08-0.5-0.23-0.71s-0.41-0.37-0.77-0.51
		c-0.23-0.09-0.74-0.23-1.53-0.42s-1.34-0.37-1.66-0.54c-0.41-0.21-0.72-0.48-0.92-0.8s-0.3-0.67-0.3-1.07
		c0-0.43,0.12-0.84,0.37-1.22s0.61-0.66,1.08-0.86s1-0.29,1.58-0.29c0.64,0,1.2,0.1,1.68,0.31s0.86,0.51,1.12,0.91
		s0.4,0.85,0.42,1.35l-1.09,0.08c-0.06-0.54-0.26-0.95-0.59-1.23s-0.84-0.42-1.5-0.42c-0.69,0-1.19,0.13-1.5,0.38
		s-0.47,0.56-0.47,0.91c0,0.31,0.11,0.56,0.33,0.76c0.22,0.2,0.79,0.4,1.71,0.61s1.56,0.39,1.9,0.55c0.5,0.23,0.87,0.52,1.11,0.88
		s0.36,0.76,0.36,1.22c0,0.46-0.13,0.89-0.39,1.29s-0.64,0.72-1.13,0.94s-1.04,0.34-1.66,0.34c-0.78,0-1.43-0.11-1.95-0.34
		S34,95.83,33.7,95.38S33.24,94.41,33.23,93.83z"/>
</g>
<g>
</g>
<g>
	<rect x="-11.42" y="-13.74" class="st1" width="128.52" height="127.48"/>
</g>
<line class="st3" x1="22.5" y1="63.5" x2="78" y2="64"/>
<line class="st3" x1="22.5" y1="64" x2="22.5" y2="26.5"/>
<rect x="23" y="51.5" class="st3" width="10" height="12"/>
<rect x="33.5" y="44.5" class="st3" width="10" height="19"/>
<rect x="43.5" y="38.5" class="st3" width="10" height="25"/>
<rect x="53.5" y="49.5" class="st3" width="10" height="14"/>
<rect x="63.5" y="34.5" class="st3" width="10" height="29"/>
<g>
</g>
<g>
</g>
<g>
</g>
<g>
</g>
<g>
</g>
<g>
</g>
<g>
</g>
<g>
</g>
<g>
</g>
<g>
</g>
<g>
</g>
<g>
</g>
<g>
</g>
<g>
</g>
<g>
</g>
</svg>
