<?xml version="1.0" encoding="utf-8"?>
<!-- Generator: Adobe Illustrator 23.0.2, SVG Export Plug-In . SVG Version: 6.00 Build 0)  -->
<svg version="1.1" id="Layer_1" xmlns="http://www.w3.org/2000/svg" xmlns:xlink="http://www.w3.org/1999/xlink" x="0px" y="0px"
	 viewBox="0 0 98 100" style="enable-background:new 0 0 98 100;" xml:space="preserve">
<style type="text/css">
	.st0{fill:#191919;}
	.st1{fill:none;}
	.st2{fill:#FFFFFF;}
	.st3{fill:none;stroke:#FFFFFF;stroke-width:2;stroke-miterlimit:10;}
</style>
<g>
	<rect y="0" class="st0" width="98" height="100"/>
</g>
<line class="st1" x1="131" y1="35" x2="106" y2="35"/>
<g>
	<rect x="0" y="86" class="st1" width="96" height="14.16"/>
	<path class="st2" d="M0.54,91.83l1.07-0.09c0.05,0.43,0.17,0.78,0.35,1.06s0.47,0.5,0.86,0.67s0.83,0.25,1.32,0.25
		c0.43,0,0.82-0.06,1.15-0.19S5.88,93.22,6.04,93s0.24-0.47,0.24-0.74c0-0.27-0.08-0.5-0.23-0.71s-0.41-0.37-0.77-0.51
		c-0.23-0.09-0.74-0.23-1.53-0.42s-1.34-0.37-1.66-0.54c-0.41-0.21-0.72-0.48-0.92-0.8s-0.3-0.67-0.3-1.07
		c0-0.43,0.12-0.84,0.37-1.22s0.61-0.66,1.08-0.86s1-0.29,1.58-0.29c0.64,0,1.2,0.1,1.68,0.31s0.86,0.51,1.12,0.91
		s0.4,0.85,0.42,1.35L6.03,88.5c-0.06-0.54-0.26-0.95-0.59-1.23s-0.84-0.42-1.5-0.42c-0.69,0-1.19,0.13-1.5,0.38
		s-0.47,0.56-0.47,0.91c0,0.31,0.11,0.56,0.33,0.76c0.22,0.2,0.79,0.4,1.71,0.61s1.56,0.39,1.9,0.55c0.5,0.23,0.87,0.52,1.11,0.88
		s0.36,0.76,0.36,1.22c0,0.46-0.13,0.89-0.39,1.29s-0.64,0.72-1.13,0.94s-1.04,0.34-1.66,0.34c-0.78,0-1.43-0.11-1.95-0.34
		s-0.94-0.57-1.24-1.02S0.55,92.41,0.54,91.83z"/>
	<path class="st2" d="M8.95,94.59V86h6.21v1.01h-5.07v2.63h4.75v1.01h-4.75v2.92h5.27v1.01H8.95z"/>
	<path class="st2" d="M16.95,94.59V86h3.81c0.77,0,1.35,0.08,1.75,0.23s0.72,0.43,0.96,0.82s0.36,0.82,0.36,1.29
		c0,0.61-0.2,1.12-0.59,1.54s-1,0.68-1.83,0.8c0.3,0.14,0.53,0.29,0.69,0.43c0.33,0.3,0.65,0.69,0.94,1.14l1.49,2.34h-1.43
		l-1.14-1.79c-0.33-0.52-0.61-0.91-0.82-1.18s-0.41-0.46-0.58-0.57s-0.34-0.19-0.52-0.23c-0.13-0.03-0.34-0.04-0.63-0.04h-1.32v3.81
		H16.95z M18.09,89.79h2.44c0.52,0,0.93-0.05,1.22-0.16s0.52-0.28,0.67-0.52s0.23-0.49,0.23-0.77c0-0.41-0.15-0.74-0.44-1
		s-0.76-0.39-1.4-0.39h-2.72V89.79z"/>
	<path class="st2" d="M27.84,94.59L24.51,86h1.23l2.23,6.24c0.18,0.5,0.33,0.97,0.45,1.41c0.13-0.47,0.29-0.94,0.46-1.41L31.21,86
		h1.16L29,94.59H27.84z"/>
	<path class="st2" d="M33.58,94.59V86h1.14v8.59H33.58z"/>
	<path class="st2" d="M42.85,91.58l1.14,0.29c-0.24,0.93-0.67,1.65-1.29,2.14s-1.38,0.74-2.27,0.74c-0.93,0-1.68-0.19-2.26-0.57
		s-1.02-0.92-1.32-1.64s-0.45-1.48-0.45-2.3c0-0.89,0.17-1.67,0.51-2.34s0.83-1.17,1.46-1.52s1.33-0.52,2.08-0.52
		c0.86,0,1.58,0.22,2.17,0.66s0.99,1.05,1.22,1.85l-1.12,0.26c-0.2-0.63-0.49-1.08-0.87-1.37s-0.86-0.43-1.43-0.43
		c-0.66,0-1.21,0.16-1.66,0.47s-0.75,0.74-0.93,1.27s-0.27,1.08-0.27,1.65c0,0.73,0.11,1.37,0.32,1.91s0.54,0.95,0.99,1.22
		s0.94,0.4,1.46,0.4c0.64,0,1.18-0.18,1.62-0.55S42.69,92.3,42.85,91.58z"/>
	<path class="st2" d="M45.41,94.59V86h6.21v1.01h-5.07v2.63h4.75v1.01h-4.75v2.92h5.27v1.01H45.41z"/>
	<path class="st2" d="M53,91.83l1.07-0.09c0.05,0.43,0.17,0.78,0.35,1.06s0.47,0.5,0.86,0.67s0.83,0.25,1.32,0.25
		c0.43,0,0.82-0.06,1.15-0.19s0.58-0.31,0.74-0.53s0.24-0.47,0.24-0.74c0-0.27-0.08-0.5-0.23-0.71s-0.41-0.37-0.77-0.51
		c-0.23-0.09-0.74-0.23-1.53-0.42s-1.34-0.37-1.66-0.54c-0.41-0.21-0.72-0.48-0.92-0.8s-0.3-0.67-0.3-1.07
		c0-0.43,0.12-0.84,0.37-1.22s0.61-0.66,1.08-0.86s1-0.29,1.58-0.29c0.64,0,1.2,0.1,1.68,0.31s0.86,0.51,1.12,0.91
		s0.4,0.85,0.42,1.35l-1.09,0.08c-0.06-0.54-0.26-0.95-0.59-1.23s-0.84-0.42-1.5-0.42c-0.69,0-1.19,0.13-1.5,0.38
		s-0.47,0.56-0.47,0.91c0,0.31,0.11,0.56,0.33,0.76c0.22,0.2,0.79,0.4,1.71,0.61s1.56,0.39,1.9,0.55c0.5,0.23,0.87,0.52,1.11,0.88
		s0.36,0.76,0.36,1.22c0,0.46-0.13,0.89-0.39,1.29s-0.64,0.72-1.13,0.94s-1.04,0.34-1.66,0.34c-0.78,0-1.43-0.11-1.95-0.34
		s-0.94-0.57-1.24-1.02S53.02,92.41,53,91.83z"/>
</g>
<g>
</g>
<path class="st3" d="M62.81,56.11H27.19c-2.32,0-4.19-1.88-4.19-4.19V36.19c0-2.32,1.88-4.19,4.19-4.19h35.61
	c2.32,0,4.19,1.88,4.19,4.19v15.72C67,54.23,65.12,56.11,62.81,56.11z"/>
<path class="st3" d="M54.84,60.49H35.16c-1.17,0-2.12-0.95-2.12-2.12v0c0-1.17,0.95-2.12,2.12-2.12h19.69
	c1.17,0,2.12,0.95,2.12,2.12v0C56.96,59.54,56.02,60.49,54.84,60.49z"/>
<ellipse class="st2" cx="45.39" cy="43.69" rx="3.86" ry="3.65"/>
<ellipse class="st0" cx="45.39" cy="43.69" rx="2.32" ry="2.19"/>
<path class="st2" d="M46.14,40.77h-1.51c-0.01,0-0.02-0.01-0.02-0.02v-1.43c0-0.01,0.01-0.02,0.02-0.02h1.51
	c0.01,0,0.02,0.01,0.02,0.02v1.43C46.16,40.76,46.15,40.77,46.14,40.77z"/>
<path class="st2" d="M42.28,44.42h-1.51c-0.01,0-0.02-0.01-0.02-0.02v-1.43c0-0.01,0.01-0.02,0.02-0.02h1.51
	c0.01,0,0.02,0.01,0.02,0.02v1.43C42.3,44.41,42.29,44.42,42.28,44.42z"/>
<path class="st2" d="M46.14,48.07h-1.51c-0.01,0-0.02-0.01-0.02-0.02v-1.43c0-0.01,0.01-0.02,0.02-0.02h1.51
	c0.01,0,0.02,0.01,0.02,0.02v1.43C46.16,48.06,46.15,48.07,46.14,48.07z"/>
<path class="st2" d="M50,44.42h-1.51c-0.01,0-0.02-0.01-0.02-0.02v-1.43c0-0.01,0.01-0.02,0.02-0.02H50c0.01,0,0.02,0.01,0.02,0.02
	v1.43C50.02,44.41,50.01,44.42,50,44.42z"/>
<path class="st2" d="M49.56,45.89l-1.07,1.02c0,0-0.01,0-0.02,0l-1.07-1.02c0,0,0-0.01,0-0.02l1.07-1.02c0,0,0.01,0,0.02,0
	l1.07,1.02C49.56,45.88,49.56,45.88,49.56,45.89z"/>
<path class="st2" d="M44.14,40.92l-1.22,0.86c-0.01,0-0.01,0-0.02,0l-1.09-1.39c0-0.01,0-0.01,0-0.02l1.22-0.86
	c0.01,0,0.01,0,0.02,0l1.09,1.39C44.15,40.91,44.15,40.92,44.14,40.92z"/>
<path class="st2" d="M43.16,47.63l-1.17-0.92c-0.01,0-0.01-0.01,0-0.02l0.97-1.11c0-0.01,0.01-0.01,0.02,0l1.17,0.92
	c0.01,0,0.01,0.01,0,0.02l-0.97,1.11C43.17,47.64,43.17,47.64,43.16,47.63z"/>
<path class="st2" d="M48.46,41.79l-1.07-1.02c0,0,0-0.01,0-0.02l1.07-1.02c0,0,0.01,0,0.02,0l1.07,1.02c0,0,0,0.01,0,0.02
	l-1.07,1.02C48.48,41.8,48.47,41.8,48.46,41.79z"/>
<g>
</g>
<g>
</g>
<g>
</g>
<g>
</g>
<g>
</g>
<g>
</g>
<g>
</g>
<g>
</g>
<g>
</g>
<g>
</g>
<g>
</g>
<g>
</g>
<g>
</g>
<g>
</g>
<g>
</g>
</svg>
