<?xml version="1.0" encoding="utf-8"?>
<!-- Generator: Adobe Illustrator 23.0.2, SVG Export Plug-In . SVG Version: 6.00 Build 0)  -->
<svg version="1.1" id="Layer_1" xmlns="http://www.w3.org/2000/svg" xmlns:xlink="http://www.w3.org/1999/xlink" x="0px" y="0px"
	 viewBox="0 0 98 100" style="enable-background:new 0 0 98 100;" xml:space="preserve">
<style type="text/css">
	.st0{fill:#191919;}
	.st1{fill:none;}
	.st2{fill:#FFFFFF;}
	.st3{fill:none;stroke:#191919;stroke-width:3;stroke-miterlimit:10;}
</style>
<g>
	<rect y="0" class="st0" width="98" height="100"/>
</g>
<line class="st1" x1="131" y1="35" x2="106" y2="35"/>
<g>
	<rect x="0" y="86" class="st1" width="96" height="14.16"/>
	<path class="st2" d="M7.05,91.58l1.14,0.29C7.95,92.8,7.52,93.51,6.91,94s-1.38,0.74-2.27,0.74c-0.93,0-1.68-0.19-2.26-0.57
		s-1.02-0.92-1.32-1.64s-0.45-1.48-0.45-2.3c0-0.89,0.17-1.67,0.51-2.34s0.83-1.17,1.46-1.52s1.33-0.52,2.08-0.52
		c0.86,0,1.58,0.22,2.17,0.66s0.99,1.05,1.22,1.85l-1.12,0.26c-0.2-0.63-0.49-1.08-0.87-1.37s-0.86-0.43-1.43-0.43
		c-0.66,0-1.21,0.16-1.66,0.47s-0.75,0.74-0.93,1.27s-0.27,1.08-0.27,1.65c0,0.73,0.11,1.37,0.32,1.91s0.54,0.95,0.99,1.22
		s0.94,0.4,1.46,0.4c0.64,0,1.18-0.18,1.62-0.55S6.9,92.3,7.05,91.58z"/>
	<path class="st2" d="M9.06,91.48c0-1.15,0.32-2.01,0.96-2.56c0.54-0.46,1.19-0.69,1.96-0.69c0.86,0,1.55,0.28,2.1,0.84
		s0.81,1.33,0.81,2.32c0,0.8-0.12,1.43-0.36,1.89s-0.59,0.82-1.05,1.07s-0.96,0.38-1.5,0.38c-0.87,0-1.58-0.28-2.11-0.84
		S9.06,92.53,9.06,91.48z M10.15,91.48c0,0.8,0.17,1.39,0.52,1.79s0.79,0.59,1.31,0.59c0.52,0,0.96-0.2,1.31-0.6
		s0.52-1.01,0.52-1.82c0-0.77-0.17-1.35-0.52-1.75s-0.78-0.59-1.3-0.59c-0.53,0-0.96,0.2-1.31,0.59S10.15,90.68,10.15,91.48z"/>
	<path class="st2" d="M16.13,94.59v-6.22h0.95v0.88c0.46-0.68,1.12-1.03,1.98-1.03c0.38,0,0.72,0.07,1.03,0.2s0.55,0.31,0.71,0.53
		s0.27,0.48,0.33,0.78c0.04,0.2,0.06,0.54,0.06,1.03v3.83h-1.05v-3.79c0-0.43-0.04-0.75-0.12-0.96s-0.23-0.38-0.44-0.51
		s-0.45-0.19-0.74-0.19c-0.45,0-0.84,0.14-1.16,0.43s-0.49,0.83-0.49,1.62v3.4H16.13z"/>
	<path class="st2" d="M25.11,93.65l0.15,0.93c-0.3,0.06-0.56,0.09-0.8,0.09c-0.38,0-0.68-0.06-0.89-0.18s-0.36-0.28-0.45-0.48
		S23,93.4,23,92.77v-3.58h-0.77v-0.82H23v-1.54l1.05-0.63v2.17h1.06v0.82h-1.06v3.64c0,0.3,0.02,0.49,0.06,0.58s0.1,0.15,0.18,0.21
		s0.2,0.08,0.36,0.08C24.76,93.69,24.92,93.68,25.11,93.65z"/>
	<path class="st2" d="M30.2,93.82c-0.39,0.33-0.77,0.57-1.13,0.7s-0.75,0.21-1.16,0.21c-0.68,0-1.21-0.17-1.58-0.5
		s-0.55-0.76-0.55-1.28c0-0.3,0.07-0.58,0.21-0.83s0.32-0.45,0.54-0.61s0.48-0.27,0.76-0.35c0.21-0.05,0.52-0.11,0.94-0.16
		c0.85-0.1,1.48-0.22,1.88-0.36c0-0.14,0.01-0.24,0.01-0.28c0-0.43-0.1-0.73-0.3-0.91c-0.27-0.24-0.67-0.36-1.2-0.36
		c-0.5,0-0.86,0.09-1.1,0.26s-0.41,0.48-0.52,0.92l-1.03-0.14c0.09-0.44,0.25-0.8,0.46-1.07s0.53-0.48,0.93-0.63
		s0.88-0.22,1.41-0.22c0.53,0,0.96,0.06,1.29,0.19s0.58,0.28,0.73,0.47s0.27,0.43,0.33,0.72c0.04,0.18,0.05,0.5,0.05,0.97v1.41
		c0,0.98,0.02,1.6,0.07,1.86s0.13,0.51,0.27,0.75h-1.1C30.3,94.37,30.23,94.12,30.2,93.82z M30.11,91.47
		c-0.38,0.16-0.96,0.29-1.72,0.4c-0.43,0.06-0.74,0.13-0.92,0.21s-0.32,0.19-0.42,0.34s-0.15,0.32-0.15,0.5
		c0,0.28,0.11,0.52,0.32,0.7s0.52,0.28,0.93,0.28c0.41,0,0.77-0.09,1.08-0.27s0.55-0.42,0.7-0.73c0.11-0.24,0.17-0.59,0.17-1.05
		V91.47z"/>
	<path class="st2" d="M36.87,92.31l1.04,0.13c-0.11,0.71-0.4,1.27-0.87,1.68s-1.04,0.61-1.72,0.61c-0.85,0-1.54-0.28-2.05-0.83
		s-0.78-1.35-0.78-2.39c0-0.67,0.11-1.26,0.33-1.76s0.56-0.88,1.02-1.13s0.95-0.38,1.49-0.38c0.68,0,1.23,0.17,1.66,0.51
		s0.71,0.83,0.83,1.46l-1.03,0.16c-0.1-0.42-0.27-0.73-0.52-0.94s-0.55-0.32-0.9-0.32c-0.53,0-0.96,0.19-1.29,0.57
		s-0.5,0.98-0.5,1.81c0,0.84,0.16,1.44,0.48,1.82s0.74,0.57,1.25,0.57c0.41,0,0.76-0.13,1.04-0.38S36.8,92.84,36.87,92.31z"/>
	<path class="st2" d="M41.12,93.65l0.15,0.93c-0.3,0.06-0.56,0.09-0.8,0.09c-0.38,0-0.68-0.06-0.89-0.18s-0.36-0.28-0.45-0.48
		s-0.13-0.61-0.13-1.25v-3.58h-0.77v-0.82h0.77v-1.54l1.05-0.63v2.17h1.06v0.82h-1.06v3.64c0,0.3,0.02,0.49,0.06,0.58
		s0.1,0.15,0.18,0.21s0.2,0.08,0.36,0.08C40.77,93.69,40.92,93.68,41.12,93.65z"/>
</g>
<line class="st1" x1="48.27" y1="33.14" x2="61.66" y2="43.06"/>
<line class="st1" x1="48.27" y1="33.14" x2="34.05" y2="43.3"/>
<g>
</g>
<rect x="23" y="26" class="st2" width="49" height="33"/>
<line class="st3" x1="21.5" y1="24.5" x2="48.5" y2="44.5"/>
<line class="st1" x1="32" y1="49" x2="56" y2="65"/>
<line class="st3" x1="48.5" y1="44.5" x2="75.5" y2="25.5"/>
<line class="st3" x1="43.5" y1="40.5" x2="22.5" y2="60.5"/>
<line class="st3" x1="53.5" y1="39.5" x2="75.5" y2="61.5"/>
<path class="st0" d="M49,46"/>
<path class="st0" d="M47.58,45.67c0.31,0.23,0.62,0.47,0.91,0.72c0.14-0.19,0.36-0.25,0.55-0.38c0.14-0.09,0.27-0.2,0.39-0.33
	c-0.25-0.47-0.55-0.93-0.8-1.4c-0.01-0.03-0.03-0.05-0.06-0.07c-0.05-0.02-0.1,0.03-0.14,0.07C48.13,44.72,47.79,45.19,47.58,45.67z
	"/>
<g>
</g>
<g>
</g>
<g>
</g>
<g>
</g>
<g>
</g>
<g>
</g>
<g>
</g>
<g>
</g>
<g>
</g>
<g>
</g>
<g>
</g>
<g>
</g>
<g>
</g>
<g>
</g>
<g>
</g>
</svg>
